<svg width="215" height="46" viewBox="0 0 215 46" fill="none" xmlns="http://www.w3.org/2000/svg">
<path d="M16.9919 33.9893C16.4419 36.556 15.5802 38.5726 14.4069 40.0393C13.2702 41.5426 11.9319 42.6793 10.3919 43.4493C8.8519 44.2193 7.2019 44.7143 5.4419 44.9343C3.64523 45.1543 1.84856 45.2643 0.0518966 45.2643L0.711897 41.4693C1.2619 41.4693 1.77523 41.4143 2.2519 41.3043C2.6919 41.1943 3.09523 40.956 3.4619 40.5893C3.82856 40.2226 4.1769 39.6726 4.5069 38.9393C4.80023 38.2426 5.07523 37.271 5.3319 36.0243L10.3369 12.3743H21.6119L16.9919 33.9893ZM22.9319 5.16929C22.9319 6.01262 22.7486 6.74596 22.3819 7.36929C22.0519 7.99262 21.5936 8.52429 21.0069 8.96429C20.4569 9.40429 19.8152 9.73429 19.0819 9.95429C18.3486 10.1743 17.5969 10.2843 16.8269 10.2843C15.3602 10.2843 14.1319 9.93596 13.1419 9.23929C12.1519 8.54262 11.6569 7.44262 11.6569 5.93929C11.6569 5.13262 11.8219 4.41762 12.1519 3.79429C12.4819 3.13429 12.9219 2.60262 13.4719 2.19929C14.0586 1.75929 14.7186 1.42929 15.4519 1.20929C16.2219 0.98929 17.0102 0.879289 17.8169 0.879289C19.2469 0.879289 20.4569 1.22762 21.4469 1.92429C22.4369 2.62096 22.9319 3.70262 22.9319 5.16929ZM42.5639 12.3743H53.7839L48.7239 36.0243H39.8139L38.8239 32.5043H38.4939C37.5406 33.641 36.2389 34.5943 34.5889 35.3643C32.9756 36.0976 31.3439 36.4643 29.6939 36.4643C27.4939 36.4643 25.7706 35.9143 24.5239 34.8143C23.2772 33.6776 22.6539 32.211 22.6539 30.4143C22.6539 29.4976 22.8006 28.361 23.0939 27.0043C23.4239 25.611 23.7172 24.3093 23.9739 23.0993L26.2839 12.3743H37.4489L34.6989 25.2443C34.6256 25.5376 34.5522 25.886 34.4789 26.2893C34.4056 26.6926 34.3322 27.096 34.2589 27.4993C34.1856 27.866 34.1122 28.2326 34.0389 28.5993C34.0022 28.9293 33.9839 29.2043 33.9839 29.4243C33.9839 29.9743 34.0939 30.451 34.3139 30.8543C34.5706 31.221 35.0106 31.4043 35.6339 31.4043C36.2939 31.4043 36.9172 31.1843 37.5039 30.7443C38.0906 30.3043 38.5489 29.8826 38.8789 29.4793L42.5639 12.3743ZM68.9617 15.8943C69.7317 15.161 70.5934 14.4826 71.5467 13.8593C72.3901 13.346 73.3801 12.8693 74.5167 12.4293C75.6534 11.9893 76.9184 11.7693 78.3117 11.7693C80.2184 11.7693 81.7951 12.2643 83.0417 13.2543C84.2884 14.2076 84.9117 15.5276 84.9117 17.2143C84.9117 17.691 84.8567 18.2776 84.7467 18.9743C84.6367 19.6343 84.5084 20.331 84.3617 21.0643C84.2151 21.7976 84.0501 22.5493 83.8667 23.3193C83.7201 24.0526 83.5917 24.7126 83.4817 25.2993L81.1717 36.0243H70.0067L73.0317 21.6693C73.1051 21.1926 73.1967 20.716 73.3067 20.2393C73.4167 19.726 73.4717 19.2676 73.4717 18.8643C73.4717 18.3143 73.3251 17.8743 73.0317 17.5443C72.7751 17.1776 72.3717 16.9943 71.8217 16.9943C71.1617 16.9943 70.5201 17.2326 69.8967 17.7093C69.3101 18.186 68.8517 18.5893 68.5217 18.9193L64.8917 36.0243H53.6717L58.6767 12.3743H67.6417L68.6317 15.8943H68.9617ZM110.868 34.7043C109.328 35.3276 107.697 35.7676 105.973 36.0243C104.287 36.3176 102.362 36.4643 100.198 36.4643C98.2916 36.4643 96.5316 36.281 94.9183 35.9143C93.3416 35.511 91.9666 34.8876 90.7933 34.0443C89.62 33.201 88.7033 32.1193 88.0433 30.7993C87.3833 29.4426 87.0533 27.811 87.0533 25.9043C87.0533 23.9243 87.3833 22.091 88.0433 20.4043C88.74 18.681 89.7666 17.1776 91.1233 15.8943C92.5166 14.611 94.2766 13.6026 96.4033 12.8693C98.53 12.136 101.06 11.7693 103.993 11.7693C106.377 11.7693 108.448 11.971 110.208 12.3743C111.968 12.741 113.417 13.6026 114.553 14.9593L113.013 21.9993H105.533C105.57 21.376 105.607 20.826 105.643 20.3493C105.68 19.8726 105.698 19.341 105.698 18.7543C105.698 17.581 105.57 16.756 105.313 16.2793C105.057 15.766 104.635 15.5093 104.048 15.5093C103.022 15.5093 102.123 16.0226 101.353 17.0493C100.583 18.0393 99.9416 19.2493 99.4283 20.6793C98.9516 22.0726 98.585 23.5576 98.3283 25.1343C98.1083 26.6743 97.9983 27.9943 97.9983 29.0943C97.9983 29.4976 98.0166 29.9193 98.0533 30.3593C98.09 30.7626 98.1633 31.1476 98.2733 31.5143C98.42 31.881 98.6033 32.1743 98.8233 32.3943C99.0433 32.6143 99.355 32.7243 99.7583 32.7243C100.125 32.7243 100.547 32.6143 101.023 32.3943C101.5 32.1743 101.958 31.8443 102.398 31.4043C102.838 30.9276 103.26 30.3226 103.663 29.5893C104.067 28.856 104.378 27.976 104.598 26.9493H112.463L110.868 34.7043ZM117.445 12.3743C118.802 12.081 119.993 11.751 121.02 11.3843C122.047 11.0176 122.982 10.5593 123.825 10.0093C124.705 9.45929 125.53 8.78096 126.3 7.97429C127.107 7.16762 127.968 6.17762 128.885 5.00429H134.55L132.955 12.3743H137.245L136.53 16.0593H132.185L129.93 26.7843C129.747 27.6276 129.6 28.3793 129.49 29.0393C129.38 29.6993 129.325 30.2126 129.325 30.5793C129.325 31.3126 129.582 31.771 130.095 31.9543C130.645 32.1376 131.653 32.2293 133.12 32.2293L132.295 36.0243C132.038 36.0976 131.635 36.1526 131.085 36.1893C130.572 36.226 129.985 36.2626 129.325 36.2993C128.702 36.3726 128.042 36.4093 127.345 36.4093C126.685 36.446 126.098 36.4643 125.585 36.4643C124.668 36.4643 123.77 36.391 122.89 36.2443C122.01 36.1343 121.222 35.896 120.525 35.5293C119.828 35.126 119.26 34.5576 118.82 33.8243C118.417 33.091 118.215 32.101 118.215 30.8543C118.215 30.4143 118.233 29.8643 118.27 29.2043C118.343 28.5443 118.472 27.811 118.655 27.0043L120.965 16.0593H116.675L117.445 12.3743ZM147.068 36.0243H135.903L140.908 12.3743H152.183L147.068 36.0243ZM153.613 5.16929C153.613 6.01262 153.43 6.74596 153.063 7.36929C152.733 7.99262 152.275 8.52429 151.688 8.96429C151.138 9.40429 150.497 9.73429 149.763 9.95429C149.03 10.1743 148.278 10.2843 147.508 10.2843C146.042 10.2843 144.813 9.93596 143.823 9.23929C142.833 8.54262 142.338 7.44262 142.338 5.93929C142.338 5.13262 142.503 4.41762 142.833 3.79429C143.163 3.13429 143.603 2.60262 144.153 2.19929C144.74 1.75929 145.4 1.42929 146.133 1.20929C146.903 0.98929 147.692 0.879289 148.498 0.879289C149.928 0.879289 151.138 1.22762 152.128 1.92429C153.118 2.62096 153.613 3.70262 153.613 5.16929ZM169.891 11.7693C174.255 11.7693 177.426 12.5393 179.406 14.0793C181.496 15.6926 182.541 18.3693 182.541 22.1093C182.541 24.4193 182.156 26.5093 181.386 28.3793C180.616 30.2126 179.535 31.7343 178.141 32.9443C175.355 35.291 171.321 36.4643 166.041 36.4643C161.531 36.4643 158.305 35.6026 156.361 33.8793C154.271 32.0826 153.226 29.3876 153.226 25.7943C153.226 23.411 153.703 21.2476 154.656 19.3043C155.646 17.361 157.058 15.7476 158.891 14.4643C161.568 12.6676 165.235 11.7693 169.891 11.7693ZM166.151 32.7243C167.068 32.7243 167.856 32.211 168.516 31.1843C169.213 30.1576 169.763 28.911 170.166 27.4443C170.57 25.941 170.863 24.401 171.046 22.8243C171.266 21.211 171.376 19.8176 171.376 18.6443C171.376 17.6176 171.266 16.8476 171.046 16.3343C170.863 15.7843 170.441 15.5093 169.781 15.5093C168.791 15.5093 167.93 16.041 167.196 17.1043C166.5 18.1676 165.931 19.4326 165.491 20.8993C165.051 22.366 164.721 23.8693 164.501 25.4093C164.318 26.9493 164.226 28.196 164.226 29.1493C164.226 31.5326 164.868 32.7243 166.151 32.7243ZM198.942 15.8943C199.712 15.161 200.574 14.4826 201.527 13.8593C202.371 13.346 203.361 12.8693 204.497 12.4293C205.634 11.9893 206.899 11.7693 208.292 11.7693C210.199 11.7693 211.776 12.2643 213.022 13.2543C214.269 14.2076 214.892 15.5276 214.892 17.2143C214.892 17.691 214.837 18.2776 214.727 18.9743C214.617 19.6343 214.489 20.331 214.342 21.0643C214.196 21.7976 214.031 22.5493 213.847 23.3193C213.701 24.0526 213.572 24.7126 213.462 25.2993L211.152 36.0243H199.987L203.012 21.6693C203.086 21.1926 203.177 20.716 203.287 20.2393C203.397 19.726 203.452 19.2676 203.452 18.8643C203.452 18.3143 203.306 17.8743 203.012 17.5443C202.756 17.1776 202.352 16.9943 201.802 16.9943C201.142 16.9943 200.501 17.2326 199.877 17.7093C199.291 18.186 198.832 18.5893 198.502 18.9193L194.872 36.0243H183.652L188.657 12.3743H197.622L198.612 15.8943H198.942Z" fill="black"/>
</svg>
