<svg width="61" height="63" viewBox="0 0 61 63" fill="none" xmlns="http://www.w3.org/2000/svg">
<path d="M30 24H36V15H45V9H36V0H30V9H21V15H30V24ZM18 51C14.7 51 12.03 53.7 12.03 57C12.03 60.3 14.7 63 18 63C21.3 63 24 60.3 24 57C24 53.7 21.3 51 18 51ZM48 51C44.7 51 42.03 53.7 42.03 57C42.03 60.3 44.7 63 48 63C51.3 63 54 60.3 54 57C54 53.7 51.3 51 48 51ZM21.3 36H43.65C45.9 36 47.88 34.77 48.9 32.91L60.48 11.88L55.26 9L43.65 30H22.59L9.81 3H0V9H6L16.8 31.77L12.75 39.09C10.56 43.11 13.44 48 18 48H54V42H18L21.3 36Z" fill="black"/>
</svg>
