<svg width="157" height="33" viewBox="0 0 157 33" fill="none" xmlns="http://www.w3.org/2000/svg">
<path d="M12.7142 24.52C12.3142 26.3867 11.6875 27.8533 10.8342 28.92C10.0075 30.0133 9.03422 30.84 7.91422 31.4C6.79422 31.96 5.59422 32.32 4.31422 32.48C3.00755 32.64 1.70088 32.72 0.394216 32.72L0.874216 29.96C1.27422 29.96 1.64755 29.92 1.99422 29.84C2.31422 29.76 2.60755 29.5867 2.87422 29.32C3.14088 29.0533 3.39422 28.6533 3.63422 28.12C3.84755 27.6133 4.04755 26.9067 4.23422 26L7.87422 8.8H16.0742L12.7142 24.52ZM17.0342 3.56C17.0342 4.17333 16.9009 4.70667 16.6342 5.16C16.3942 5.61333 16.0609 6 15.6342 6.32C15.2342 6.64 14.7676 6.88 14.2342 7.04C13.7009 7.2 13.1542 7.28 12.5942 7.28C11.5276 7.28 10.6342 7.02667 9.91422 6.52C9.19422 6.01333 8.83422 5.21333 8.83422 4.12C8.83422 3.53333 8.95422 3.01333 9.19422 2.56C9.43422 2.08 9.75422 1.69333 10.1542 1.4C10.5809 1.08 11.0609 0.839999 11.5942 0.679999C12.1542 0.519998 12.7275 0.439998 13.3142 0.439998C14.3542 0.439998 15.2342 0.693332 15.9542 1.2C16.6742 1.70667 17.0342 2.49333 17.0342 3.56ZM31.312 8.8H39.472L35.792 26H29.312L28.592 23.44H28.352C27.6587 24.2667 26.712 24.96 25.512 25.52C24.3387 26.0533 23.152 26.32 21.952 26.32C20.352 26.32 19.0987 25.92 18.192 25.12C17.2854 24.2933 16.832 23.2267 16.832 21.92C16.832 21.2533 16.9387 20.4267 17.152 19.44C17.392 18.4267 17.6054 17.48 17.792 16.6L19.472 8.8H27.592L25.592 18.16C25.5387 18.3733 25.4854 18.6267 25.432 18.92C25.3787 19.2133 25.3254 19.5067 25.272 19.8C25.2187 20.0667 25.1654 20.3333 25.112 20.6C25.0854 20.84 25.072 21.04 25.072 21.2C25.072 21.6 25.152 21.9467 25.312 22.24C25.4987 22.5067 25.8187 22.64 26.272 22.64C26.752 22.64 27.2054 22.48 27.632 22.16C28.0587 21.84 28.392 21.5333 28.632 21.24L31.312 8.8ZM50.5105 11.36C51.0705 10.8267 51.6971 10.3333 52.3905 9.88C53.0038 9.50667 53.7238 9.16 54.5505 8.84C55.3771 8.52 56.2971 8.36 57.3105 8.36C58.6971 8.36 59.8438 8.72 60.7505 9.44C61.6571 10.1333 62.1105 11.0933 62.1105 12.32C62.1105 12.6667 62.0705 13.0933 61.9905 13.6C61.9105 14.08 61.8171 14.5867 61.7105 15.12C61.6038 15.6533 61.4838 16.2 61.3505 16.76C61.2438 17.2933 61.1505 17.7733 61.0705 18.2L59.3905 26H51.2705L53.4705 15.56C53.5238 15.2133 53.5905 14.8667 53.6705 14.52C53.7505 14.1467 53.7905 13.8133 53.7905 13.52C53.7905 13.12 53.6838 12.8 53.4705 12.56C53.2838 12.2933 52.9905 12.16 52.5905 12.16C52.1105 12.16 51.6438 12.3333 51.1905 12.68C50.7638 13.0267 50.4305 13.32 50.1905 13.56L47.5505 26H39.3905L43.0305 8.8H49.5505L50.2705 11.36H50.5105ZM80.988 25.04C79.868 25.4933 78.6813 25.8133 77.428 26C76.2013 26.2133 74.8013 26.32 73.228 26.32C71.8413 26.32 70.5613 26.1867 69.388 25.92C68.2413 25.6267 67.2413 25.1733 66.388 24.56C65.5346 23.9467 64.868 23.16 64.388 22.2C63.908 21.2133 63.668 20.0267 63.668 18.64C63.668 17.2 63.908 15.8667 64.388 14.64C64.8946 13.3867 65.6413 12.2933 66.628 11.36C67.6413 10.4267 68.9213 9.69333 70.468 9.16C72.0146 8.62667 73.8546 8.36 75.988 8.36C77.7213 8.36 79.228 8.50667 80.508 8.8C81.788 9.06667 82.8413 9.69333 83.668 10.68L82.548 15.8H77.108C77.1346 15.3467 77.1613 14.9467 77.188 14.6C77.2146 14.2533 77.228 13.8667 77.228 13.44C77.228 12.5867 77.1346 11.9867 76.948 11.64C76.7613 11.2667 76.4546 11.08 76.028 11.08C75.2813 11.08 74.628 11.4533 74.068 12.2C73.508 12.92 73.0413 13.8 72.668 14.84C72.3213 15.8533 72.0546 16.9333 71.868 18.08C71.708 19.2 71.628 20.16 71.628 20.96C71.628 21.2533 71.6413 21.56 71.668 21.88C71.6946 22.1733 71.748 22.4533 71.828 22.72C71.9346 22.9867 72.068 23.2 72.228 23.36C72.388 23.52 72.6146 23.6 72.908 23.6C73.1746 23.6 73.4813 23.52 73.828 23.36C74.1746 23.2 74.508 22.96 74.828 22.64C75.148 22.2933 75.4546 21.8533 75.748 21.32C76.0413 20.7867 76.268 20.1467 76.428 19.4H82.148L80.988 25.04ZM85.7711 8.8C86.7578 8.58667 87.6244 8.34667 88.3711 8.08C89.1178 7.81333 89.7978 7.48 90.4111 7.08C91.0511 6.68 91.6511 6.18667 92.2111 5.6C92.7978 5.01333 93.4244 4.29333 94.0911 3.44H98.2111L97.0511 8.8H100.171L99.6511 11.48H96.4911L94.8511 19.28C94.7178 19.8933 94.6111 20.44 94.5311 20.92C94.4511 21.4 94.4111 21.7733 94.4111 22.04C94.4111 22.5733 94.5978 22.9067 94.9711 23.04C95.3711 23.1733 96.1044 23.24 97.1711 23.24L96.5711 26C96.3844 26.0533 96.0911 26.0933 95.6911 26.12C95.3178 26.1467 94.8911 26.1733 94.4111 26.2C93.9578 26.2533 93.4778 26.28 92.9711 26.28C92.4911 26.3067 92.0644 26.32 91.6911 26.32C91.0244 26.32 90.3711 26.2667 89.7311 26.16C89.0911 26.08 88.5178 25.9067 88.0111 25.64C87.5044 25.3467 87.0911 24.9333 86.7711 24.4C86.4778 23.8667 86.3311 23.1467 86.3311 22.24C86.3311 21.92 86.3444 21.52 86.3711 21.04C86.4244 20.56 86.5178 20.0267 86.6511 19.44L88.3311 11.48H85.2111L85.7711 8.8ZM107.315 26H99.1952L102.835 8.8H111.035L107.315 26ZM112.075 3.56C112.075 4.17333 111.942 4.70667 111.675 5.16C111.435 5.61333 111.102 6 110.675 6.32C110.275 6.64 109.808 6.88 109.275 7.04C108.742 7.2 108.195 7.28 107.635 7.28C106.568 7.28 105.675 7.02667 104.955 6.52C104.235 6.01333 103.875 5.21333 103.875 4.12C103.875 3.53333 103.995 3.01333 104.235 2.56C104.475 2.08 104.795 1.69333 105.195 1.4C105.622 1.08 106.102 0.839999 106.635 0.679999C107.195 0.519998 107.768 0.439998 108.355 0.439998C109.395 0.439998 110.275 0.693332 110.995 1.2C111.715 1.70667 112.075 2.49333 112.075 3.56ZM123.914 8.36C127.087 8.36 129.394 8.92 130.834 10.04C132.354 11.2133 133.114 13.16 133.114 15.88C133.114 17.56 132.834 19.08 132.274 20.44C131.714 21.7733 130.927 22.88 129.914 23.76C127.887 25.4667 124.954 26.32 121.114 26.32C117.834 26.32 115.487 25.6933 114.074 24.44C112.554 23.1333 111.794 21.1733 111.794 18.56C111.794 16.8267 112.141 15.2533 112.834 13.84C113.554 12.4267 114.581 11.2533 115.914 10.32C117.861 9.01333 120.527 8.36 123.914 8.36ZM121.194 23.6C121.861 23.6 122.434 23.2267 122.914 22.48C123.421 21.7333 123.821 20.8267 124.114 19.76C124.407 18.6667 124.621 17.5467 124.754 16.4C124.914 15.2267 124.994 14.2133 124.994 13.36C124.994 12.6133 124.914 12.0533 124.754 11.68C124.621 11.28 124.314 11.08 123.834 11.08C123.114 11.08 122.487 11.4667 121.954 12.24C121.447 13.0133 121.034 13.9333 120.714 15C120.394 16.0667 120.154 17.16 119.994 18.28C119.861 19.4 119.794 20.3067 119.794 21C119.794 22.7333 120.261 23.6 121.194 23.6ZM145.042 11.36C145.602 10.8267 146.228 10.3333 146.922 9.88C147.535 9.50667 148.255 9.16 149.082 8.84C149.908 8.52 150.828 8.36 151.842 8.36C153.228 8.36 154.375 8.72 155.282 9.44C156.188 10.1333 156.642 11.0933 156.642 12.32C156.642 12.6667 156.602 13.0933 156.522 13.6C156.442 14.08 156.348 14.5867 156.242 15.12C156.135 15.6533 156.015 16.2 155.882 16.76C155.775 17.2933 155.682 17.7733 155.602 18.2L153.922 26H145.802L148.002 15.56C148.055 15.2133 148.122 14.8667 148.202 14.52C148.282 14.1467 148.322 13.8133 148.322 13.52C148.322 13.12 148.215 12.8 148.002 12.56C147.815 12.2933 147.522 12.16 147.122 12.16C146.642 12.16 146.175 12.3333 145.722 12.68C145.295 13.0267 144.962 13.32 144.722 13.56L142.082 26H133.922L137.562 8.8H144.082L144.802 11.36H145.042Z" fill="black"/>
</svg>
